# xmcd
# Track frame offsets:
# 150
# 2842
# 14134
# 26325
# 38245
# 50810
# 64875
# 75977
# 87802
# 101042
# 111525
# 128890
# 138715
# 149652
# 163625
# 175855
# 189705
# 203012
# 214777
# 225887
# 242390
#
# Disc length: 3465 seconds
# Revision: 0
# Processed by: cddbd v1.4PL0 Copyright (c) Steve Scherf et al.
# Submitted via: VisiTrax 2.9.5.180 - For more info visit www.synapsa.com
#
DISCID=270d8715
DTITLE=Leon Rausch - Deep in the heart of Texas
DYEAR=1900
DGENRE=Swing
TTITLE0=Introduction
TTITLE1=Texas in my soul
TTITLE2=Amarillo by morning
TTITLE3=Route 66
TTITLE4=Forgive me
TTITLE5=Right or wrong
TTITLE6=Secret love
TTITLE7=Don't get around much anymore
TTITLE8=Going away party
TTITLE9=You don't have to be from Texas
TTITLE10=Faded love
TTITLE11=San Antonio Rose
TTITLE12=Dallas
TTITLE13=Houston (Means I'm one day closer to you)
TTITLE14=I was just walking out the door
TTITLE15=Does Ft. Worth ever cross your mind
TTITLE16=Just a little lovin'
TTITLE17=Late, late dream
TTITLE18=One more good time band in Texas
TTITLE19=Beautiful Texas
TTITLE20=Deep in the heart of Texas
EXTD=
EXTT0=
EXTT1=
EXTT2=
EXTT3=
EXTT4=
EXTT5=
EXTT6=
EXTT7=
EXTT8=
EXTT9=
EXTT10=
EXTT11=
EXTT12=
EXTT13=
EXTT14=
EXTT15=
EXTT16=
EXTT17=
EXTT18=
EXTT19=
EXTT20=
PLAYORDER=
